<mxfile host="app.diagrams.net" modified="2022-06-12T21:38:33.051Z" agent="5.0 (Windows NT 10.0; Win64; x64) AppleWebKit/537.36 (KHTML, like Gecko) Chrome/102.0.0.0 Safari/537.36" etag="4Q0rb71vG-0UwV3S3zus" version="19.0.3" type="github">
  <diagram id="kFqgWBXfpyE2UBPLjS9D" name="Page-1">
    <mxGraphModel dx="1210" dy="606" grid="1" gridSize="10" guides="1" tooltips="1" connect="1" arrows="1" fold="1" page="1" pageScale="1" pageWidth="827" pageHeight="1169" math="0" shadow="0">
      <root>
        <mxCell id="0" />
        <mxCell id="1" parent="0" />
        <mxCell id="-IwtdAEwMymeI9Z9i5rc-1" value="&lt;div style=&quot;&quot;&gt;&lt;span style=&quot;background-color: initial; letter-spacing: 0.2px;&quot;&gt;&lt;font style=&quot;font-size: 36px;&quot; color=&quot;#3c4043&quot;&gt;COMPUTER&amp;nbsp;ARCHITECTURE&lt;/font&gt;&lt;/span&gt;&lt;/div&gt;" style="text;html=1;fillColor=#eeeeee;align=center;verticalAlign=middle;whiteSpace=wrap;rounded=0;strokeColor=#36393d;fontStyle=0;fontFamily=Tahoma;" parent="1" vertex="1">
          <mxGeometry x="49" y="50" width="730" height="130" as="geometry" />
        </mxCell>
        <mxCell id="-IwtdAEwMymeI9Z9i5rc-2" value="CPU&lt;br&gt;&lt;font style=&quot;font-size: 18px;&quot;&gt;It is the part that processes data and perfoms commands.&lt;/font&gt;&lt;br&gt;&lt;pre style=&quot;text-align: left; unicode-bidi: isolate; line-height: 36px; border: none; padding: 2px 0.14em 2px 0px; position: relative; margin-top: -2px; margin-bottom: -2px; resize: none; font-family: inherit; overflow: hidden; width: 270.02px; overflow-wrap: break-word; color: rgb(32, 33, 36);&quot; dir=&quot;ltr&quot; id=&quot;tw-target-text&quot; data-placeholder=&quot;Translation&quot; class=&quot;tw-data-text tw-text-large tw-ta&quot;&gt;&lt;br&gt;&lt;/pre&gt;" style="ellipse;whiteSpace=wrap;html=1;fontFamily=Tahoma;fontSize=36;horizontal=1;fillColor=#ffff88;strokeColor=none;" parent="1" vertex="1">
          <mxGeometry x="10" y="260" width="260" height="190" as="geometry" />
        </mxCell>
        <mxCell id="-IwtdAEwMymeI9Z9i5rc-3" value="RAM&lt;br&gt;&lt;span style=&quot;font-size: 18px;&quot;&gt;&amp;nbsp; It is the memory that temporarily stores the information that the computer will need.&lt;/span&gt;&lt;br&gt;&lt;pre style=&quot;text-align: left; unicode-bidi: isolate; line-height: 36px; border: none; padding: 2px 0.14em 2px 0px; position: relative; margin-top: -2px; margin-bottom: -2px; resize: none; font-family: inherit; overflow: hidden; width: 270.02px; overflow-wrap: break-word; color: rgb(32, 33, 36);&quot; dir=&quot;ltr&quot; id=&quot;tw-target-text&quot; data-placeholder=&quot;Translation&quot; class=&quot;tw-data-text tw-text-large tw-ta&quot;&gt;&lt;br&gt;&lt;/pre&gt;" style="ellipse;whiteSpace=wrap;html=1;fontFamily=Tahoma;fontSize=36;horizontal=1;fillColor=#ffff88;strokeColor=none;" parent="1" vertex="1">
          <mxGeometry y="490" width="280" height="197" as="geometry" />
        </mxCell>
        <mxCell id="-IwtdAEwMymeI9Z9i5rc-4" value="HDD&lt;br&gt;&lt;font style=&quot;font-size: 18px;&quot;&gt;It is a memory where information is permanently stored.&lt;/font&gt;&lt;br&gt;&lt;pre style=&quot;text-align: left; unicode-bidi: isolate; line-height: 36px; border: none; padding: 2px 0.14em 2px 0px; position: relative; margin-top: -2px; margin-bottom: -2px; resize: none; font-family: inherit; overflow: hidden; width: 270.02px; overflow-wrap: break-word; color: rgb(32, 33, 36);&quot; dir=&quot;ltr&quot; id=&quot;tw-target-text&quot; data-placeholder=&quot;Translation&quot; class=&quot;tw-data-text tw-text-large tw-ta&quot;&gt;&lt;br&gt;&lt;/pre&gt;" style="ellipse;whiteSpace=wrap;html=1;fontFamily=Tahoma;fontSize=36;horizontal=1;fillColor=#ffff88;strokeColor=none;" parent="1" vertex="1">
          <mxGeometry y="740" width="280" height="180" as="geometry" />
        </mxCell>
        <mxCell id="-IwtdAEwMymeI9Z9i5rc-6" value="" style="shape=flexArrow;endArrow=classic;startArrow=classic;html=1;rounded=0;fontFamily=Tahoma;fontSize=18;fillColor=#cdeb8b;strokeColor=#36393d;width=33;endSize=5.09;gradientColor=#ffffff;" parent="1" edge="1">
          <mxGeometry width="100" height="100" relative="1" as="geometry">
            <mxPoint x="280" y="360" as="sourcePoint" />
            <mxPoint x="460" y="360" as="targetPoint" />
            <Array as="points">
              <mxPoint x="360" y="360" />
              <mxPoint x="420" y="360" />
            </Array>
          </mxGeometry>
        </mxCell>
        <mxCell id="-IwtdAEwMymeI9Z9i5rc-10" value="&lt;div style=&quot;&quot;&gt;&lt;/div&gt;&lt;font style=&quot;&quot;&gt;&lt;font style=&quot;font-size: 18px;&quot;&gt;It is the circuit used to transmit data from one component of the computer to another.&lt;/font&gt;&lt;br&gt;&lt;/font&gt;" style="rounded=0;whiteSpace=wrap;html=1;fontFamily=Tahoma;fontSize=18;fillColor=#d5e8d4;strokeColor=#82b366;gradientColor=#97d077;" parent="1" vertex="1">
          <mxGeometry x="480" y="240" width="120" height="720" as="geometry" />
        </mxCell>
        <mxCell id="-IwtdAEwMymeI9Z9i5rc-11" value="&lt;div style=&quot;font-size: 18px;&quot;&gt;&lt;span style=&quot;font-size: 36px; background-color: initial;&quot;&gt;B&lt;/span&gt;&lt;/div&gt;U&lt;br&gt;S" style="text;html=1;strokeColor=none;fillColor=none;align=center;verticalAlign=middle;whiteSpace=wrap;rounded=0;fontFamily=Tahoma;fontSize=36;" parent="1" vertex="1">
          <mxGeometry x="510" y="310" width="60" height="170" as="geometry" />
        </mxCell>
        <mxCell id="-IwtdAEwMymeI9Z9i5rc-13" value="" style="shape=flexArrow;endArrow=classic;startArrow=classic;html=1;rounded=0;fontFamily=Tahoma;fontSize=18;fillColor=#cdeb8b;strokeColor=default;width=15;endSize=5.09;gradientColor=#ffffff;" parent="1" edge="1">
          <mxGeometry width="100" height="100" relative="1" as="geometry">
            <mxPoint x="610" y="599.5" as="sourcePoint" />
            <mxPoint x="717" y="599.5" as="targetPoint" />
            <Array as="points">
              <mxPoint x="657" y="600" />
            </Array>
          </mxGeometry>
        </mxCell>
        <mxCell id="-IwtdAEwMymeI9Z9i5rc-14" value="KEYBOARD" style="rounded=1;whiteSpace=wrap;html=1;fontFamily=Tahoma;fontSize=18;strokeColor=#82b366;fillColor=#d5e8d4;" parent="1" vertex="1">
          <mxGeometry x="730" y="550" width="90" height="100" as="geometry" />
        </mxCell>
        <mxCell id="h6GzgnAGYp7NEniSnFDI-2" value="" style="shape=flexArrow;endArrow=classic;startArrow=classic;html=1;rounded=0;fontFamily=Tahoma;fontSize=18;fillColor=#cdeb8b;strokeColor=#36393d;width=33;endSize=5.09;gradientColor=#ffffff;" edge="1" parent="1">
          <mxGeometry width="100" height="100" relative="1" as="geometry">
            <mxPoint x="280" y="560" as="sourcePoint" />
            <mxPoint x="460" y="560" as="targetPoint" />
            <Array as="points">
              <mxPoint x="360" y="560" />
              <mxPoint x="420" y="560" />
            </Array>
          </mxGeometry>
        </mxCell>
        <mxCell id="h6GzgnAGYp7NEniSnFDI-3" value="" style="shape=flexArrow;endArrow=classic;startArrow=classic;html=1;rounded=0;fontFamily=Tahoma;fontSize=18;fillColor=#cdeb8b;strokeColor=#36393d;width=33;endSize=5.09;gradientColor=#ffffff;" edge="1" parent="1">
          <mxGeometry width="100" height="100" relative="1" as="geometry">
            <mxPoint x="290" y="840" as="sourcePoint" />
            <mxPoint x="470" y="840" as="targetPoint" />
            <Array as="points">
              <mxPoint x="370" y="840" />
              <mxPoint x="430" y="840" />
            </Array>
          </mxGeometry>
        </mxCell>
      </root>
    </mxGraphModel>
  </diagram>
</mxfile>
